<svg xmlns="http://www.w3.org/2000/svg" width="40" height="40" viewBox="0 0 139.604 151.577">
  <g id="Group_973" data-name="Group 973" transform="translate(-60.261 -413.471)">
    <g id="Group_948" data-name="Group 948" transform="translate(73.446 422.241)">
      <path id="Path_70347" data-name="Path 70347" d="M70.573,420.714l93.561,27.015C157.286,446.99,93.723,427.756,70.573,420.714Z" transform="translate(-70.384 -420.09)" fill="#fff"/>
      <path id="Path_70348" data-name="Path 70348" d="M164.107,448.516c-6.473-.7-61.472-17.24-93.68-27.04l.37-1.244,93.561,27.015Z" transform="translate(-70.427 -420.233)" fill="#009150"/>
    </g>
    <g id="Group_949" data-name="Group 949" transform="translate(166.604 448.846)">
      <path id="Path_70349" data-name="Path 70349" d="M144.23,468.124l-1.466-23.876a2.262,2.262,0,0,1,.117-.934Z" transform="translate(-142.108 -439.985)" fill="#fff"/>
      <path id="Path_70350" data-name="Path 70350" d="M143.732,468.927l-1.466-23.878a2.885,2.885,0,0,1,.152-1.185l1.08-3.116,1.528,28.1Z" transform="translate(-142.257 -440.747)" fill="#009150"/>
    </g>
    <g id="Group_950" data-name="Group 950" transform="translate(65.323 413.471)">
      <path id="Path_70351" data-name="Path 70351" d="M189.728,440.746a.2.2,0,0,1-.1.25c-1.486.763-12.926,6.581-19.358,8.191a14.207,14.207,0,0,1-4.215.558c-.052,0-.1-.013-.156-.013h-.013c-6.848-.739-70.41-19.973-93.561-27.015-.208-.065-.415-.13-.61-.182-3.268-1-5.642-1.725-6.861-2.1a.268.268,0,0,1,.013-.519c4.215-1.089,21.905-5.551,30.426-5.94C104.947,413.537,186.054,432.273,189.728,440.746Z" transform="translate(-64.015 -413.323)" fill="#fff"/>
      <path id="Path_70352" data-name="Path 70352" d="M166.679,450.557q-.268,0-.517-.016l-.137-.014c-6.53-.7-61.529-17.243-93.737-27.042-.211-.065-.4-.126-.588-.174-3.292-1.006-5.665-1.733-6.885-2.109a.907.907,0,0,1-.65-.881.92.92,0,0,1,.677-.882c3.594-.93,21.882-5.567,30.574-5.962.082,0,.172-.007.27-.007,9.521,0,90.724,17.793,94.786,27.164h0a.845.845,0,0,1-.4,1.085c-1.3.669-12.946,6.6-19.494,8.243A16.257,16.257,0,0,1,166.679,450.557Zm-100.194-30.2c1.329.41,3.219.987,5.572,1.705.176.047.388.113.6.178,25.9,7.88,86.845,26.282,93.452,26.994l.143.012a13.718,13.718,0,0,0,4.011-.539c5.961-1.494,16.337-6.674,18.8-7.928-5.569-7.675-82.544-26.483-93.59-26.007C87.684,415.127,71.94,418.974,66.484,420.358Zm122.8,20.791v0ZM65.191,419.961h0Z" transform="translate(-64.164 -413.471)" fill="#009150"/>
    </g>
    <g id="Group_951" data-name="Group 951" transform="translate(166.567 440.633)">
      <path id="Path_70353" data-name="Path 70353" d="M170,493.328a2.59,2.59,0,0,1-1.466,2.49l-.039.026-8.858,4.228a6.906,6.906,0,0,0-3.865,7.159l.817,5.9a2.02,2.02,0,0,1-.207,1.219c-.233.441-5.862,1.712-7.937,2.192l-.195.039c-.363.078-.571.117-.571.117a.58.58,0,0,1-.687-.545l-.221-3.58-1.038-17.029-1.53-24.927-1.349-24.81c-.013-.013,0-.013,0-.026a2.623,2.623,0,0,1,1.517-1.673l2.685-1.141c6.887-1.725,16.925-6.913,19.091-8.054h.013a.488.488,0,0,1,.454.454Z" transform="translate(-142.044 -434.266)" fill="#fff"/>
      <path id="Path_70354" data-name="Path 70354" d="M147.757,517.506a1.234,1.234,0,0,1-.772-.271,1.217,1.217,0,0,1-.456-.908l-2.788-45.52L142.4,446.239l-.176-.176.206-.375a3.263,3.263,0,0,1,1.874-2.03l2.678-1.139c6.928-1.744,17.077-7,19.043-8.031l.141-.075h.161a1.147,1.147,0,0,1,1.113,1.039l3.386,57.986A3.222,3.222,0,0,1,169,496.551l-8.9,4.254a6.244,6.244,0,0,0-3.5,6.486l.817,5.9a2.671,2.671,0,0,1-.274,1.606c-.231.436-.713.761-7.941,2.428l-.63.139c-.374.079-.586.121-.586.121A1.352,1.352,0,0,1,147.757,517.506Zm-4.066-71.486,1.344,24.712,2.788,45.53,1.087-.3a71.952,71.952,0,0,0,7.136-1.879,1.37,1.37,0,0,0,.086-.707l-.817-5.907a7.536,7.536,0,0,1,4.227-7.832l8.858-4.228a1.961,1.961,0,0,0,1.137-1.892h0l-3.366-57.634c-3.277,1.708-12.309,6.246-18.772,7.866l-2.589,1.109A1.982,1.982,0,0,0,143.691,446.02Z" transform="translate(-142.228 -434.414)" fill="#009150"/>
    </g>
    <g id="Group_952" data-name="Group 952" transform="translate(166.604 448.846)">
      <path id="Path_70355" data-name="Path 70355" d="M144.23,468.124l-1.466-23.876a2.262,2.262,0,0,1,.117-.934Z" transform="translate(-142.108 -439.985)" fill="#fff"/>
      <path id="Path_70356" data-name="Path 70356" d="M143.732,468.927l-1.466-23.878a2.885,2.885,0,0,1,.152-1.185l1.08-3.116,1.528,28.1Z" transform="translate(-142.257 -440.747)" fill="#009150"/>
    </g>
    <g id="Group_953" data-name="Group 953" transform="translate(61.558 420.067)">
      <path id="Path_70357" data-name="Path 70357" d="M170.667,519.163a1.714,1.714,0,0,1-1.893,1.8c-.428-.052-.921-.1-1.491-.169-.285-.026-.584-.065-.895-.1-.791-.091-1.686-.195-2.659-.3-.363-.052-.739-.1-1.128-.143-21.7-2.594-80.228-10.362-96.881-20.349a13.544,13.544,0,0,1-3.294-2.581.664.664,0,0,1-.091-.1,2.569,2.569,0,0,1-.571-1.751l3.7-76.169a.258.258,0,0,1,.324-.233l6.8,1.958c.195.052.4.117.61.182,23.15,7.042,86.713,26.276,93.561,27.015h.013l.039.013.13,2.257c0,.013-.013.013,0,.026a2.263,2.263,0,0,0-.117.934l1.466,23.876,1.362,24.914.921,16.99Z" transform="translate(-61.112 -418.408)" fill="#fff"/>
      <path id="Path_70358" data-name="Path 70358" d="M169.111,521.775a2.487,2.487,0,0,1-.261-.014l-1.494-.17c-.241-.022-.511-.056-.79-.091l-.564-.066c-.671-.077-1.407-.161-2.194-.245-.377-.053-.744-.1-1.124-.143-23.694-2.832-80.564-10.491-97.15-20.437a14.042,14.042,0,0,1-3.449-2.712.927.927,0,0,1-.143-.171,3.137,3.137,0,0,1-.678-2.135l3.7-76.174a.913.913,0,0,1,.374-.687.892.892,0,0,1,.756-.143l6.817,1.963c.187.049.4.116.61.18,25.9,7.88,86.845,26.282,93.452,26.994l.16.032.406.145.064.443.118,2.037.11.112-.089.258,0,.041-.047.083a1.629,1.629,0,0,0-.083.669l1.467,23.889,2.388,43.844a2.38,2.38,0,0,1-.747,1.856A2.338,2.338,0,0,1,169.111,521.775Zm-102.88-101.8-3.672,75.673a1.927,1.927,0,0,0,.42,1.3A13.067,13.067,0,0,0,66.2,499.5c16.833,10.094,78.214,18.061,96.625,20.262.386.038.772.091,1.144.144.768.083,1.506.166,2.18.244l.459.052c.384.049.637.08.879.1l1.512.172a1.054,1.054,0,0,0,.829-.28,1.084,1.084,0,0,0,.34-.85l-2.386-43.831-1.465-23.874a2.948,2.948,0,0,1,.041-.777l-.088-.089.153-.278-.089-1.558c-8.7-1.44-61.778-17.407-93.184-26.962-.211-.065-.4-.126-.588-.174Z" transform="translate(-61.261 -418.557)" fill="#009150"/>
    </g>
    <g id="Group_954" data-name="Group 954" transform="translate(63.761 500.914)">
      <path id="Path_70359" data-name="Path 70359" d="M161.712,501.743c-21.49-2.49-79.7-9.909-96.959-20.349h.078C81.483,491.38,140.014,499.149,161.712,501.743Z" transform="translate(-62.428 -480.746)" fill="#fff"/>
      <path id="Path_70360" data-name="Path 70360" d="M162.169,502.536c-29.3-3.4-80.9-10.566-97.219-20.438l-1.989-1.2h2.5l.232.093c16.83,10.093,78.2,18.059,96.62,20.259h0Z" transform="translate(-62.96 -480.894)" fill="#009150"/>
    </g>
    <g id="Group_955" data-name="Group 955" transform="translate(169.4 501.198)">
      <path id="Path_70361" data-name="Path 70361" d="M145.864,498.644l-.921-16.99.169.013,1.038,17.029Z" transform="translate(-144.255 -480.953)" fill="#fff"/>
      <path id="Path_70362" data-name="Path 70362" d="M147,499.643l-1.6-.293-.988-18.237,1.469.11Z" transform="translate(-144.413 -481.113)" fill="#009150"/>
    </g>
    <g id="Group_956" data-name="Group 956" transform="translate(60.415 500.057)">
      <path id="Path_70363" data-name="Path 70363" d="M199.033,493.359c0,.519-.026,1.05-.078,1.569l-.558,5.136a14.062,14.062,0,0,1-5.577,9.792l-1.958,1.466a10.892,10.892,0,0,1-1.414.908,12.553,12.553,0,0,1-5.706,1.621c-4.2.169-10.985.4-18.326.48-4.682.052-9.584.039-14.188-.1a112.311,112.311,0,0,1-14.98-1.18c-3.307-.571-5.447-1.362-5.719-2.464a3.416,3.416,0,0,0-1.323-1.712,23.945,23.945,0,0,0-6.186-3.048c-7.522-2.723-19-5.045-26.548-6.147A44.384,44.384,0,0,0,89.364,499c-3.852.259-9.74,6.783-20.258-.739A45.429,45.429,0,0,1,61,490.506l-.117-7.068a4.1,4.1,0,0,1,.065-.895c.908,3.087,4.773,6.588,17.262,7.405.506.039,1.025.091,1.569.169a81.792,81.792,0,0,1,12.476,3.4c17.055,5.564,44.679,15.148,89.047,10.778,4.5-.441,4.423-2.646.519-3.281-.519-.091-6.809,1.141-9.04,1.582,2.075-.48,7.7-1.751,7.937-2.192a2.021,2.021,0,0,0,.207-1.219l-.817-5.9a6.906,6.906,0,0,1,3.865-7.159l8.858-4.228a5.687,5.687,0,0,1,2.373,1.414A15.134,15.134,0,0,1,199.033,493.359Z" transform="translate(-60.231 -479.74)" fill="#fff"/>
      <path id="Path_70364" data-name="Path 70364" d="M160.726,515.5c-3.407,0-6.544-.044-9.369-.132a110.959,110.959,0,0,1-15.072-1.191c-3.979-.685-5.9-1.594-6.238-2.945a2.84,2.84,0,0,0-1.093-1.359,23.23,23.23,0,0,0-6.009-2.948c-7.216-2.612-18.468-4.954-26.418-6.114a43.949,43.949,0,0,0-6.967-.671,11.129,11.129,0,0,0-3.145,1.018c-3.736,1.576-9.381,3.958-17.537-1.877a46.464,46.464,0,0,1-8.224-7.866l-.149-.175-.121-7.3a4.665,4.665,0,0,1,.075-1.021l.489-2.687.77,2.62c.8,2.721,4.345,6.134,16.684,6.941.527.041,1.06.095,1.619.174a82,82,0,0,1,12.585,3.424l1.463.478c17.654,5.775,44.333,14.5,87.32,10.269,2.288-.223,2.825-.866,2.827-.975.005-.139-.546-.726-2.349-1.019-.154-.047-1.294.092-8.81,1.578l-.272-1.269.428-.1a72.024,72.024,0,0,0,7.136-1.879,1.372,1.372,0,0,0,.086-.707l-.817-5.907a7.536,7.536,0,0,1,4.227-7.832l9.089-4.338.244.076a6.29,6.29,0,0,1,2.657,1.6,15.782,15.782,0,0,1,4,10.488c0,.541-.027,1.093-.08,1.634l-.559,5.141a14.752,14.752,0,0,1-5.834,10.242l-1.958,1.464a11.359,11.359,0,0,1-1.5.962,13.206,13.206,0,0,1-5.984,1.7c-6.36.254-12.7.42-18.342.48Q163.069,515.5,160.726,515.5Zm-70.764-16.67a54.693,54.693,0,0,1,6.753.7c8.014,1.17,19.371,3.534,26.675,6.18a23.937,23.937,0,0,1,6.367,3.149,3.963,3.963,0,0,1,1.55,2.062c.066.268.635,1.195,5.2,1.982a110.062,110.062,0,0,0,14.886,1.171c4.1.128,8.868.166,14.165.1,5.627-.06,11.958-.225,18.306-.48a11.962,11.962,0,0,0,5.412-1.536,10.325,10.325,0,0,0,1.346-.864l1.958-1.465a13.456,13.456,0,0,0,5.32-9.342l.558-5.136c.049-.493.074-1,.074-1.5a14.477,14.477,0,0,0-3.662-9.62,4.932,4.932,0,0,0-1.847-1.144L184.4,487.2a6.244,6.244,0,0,0-3.5,6.486l.817,5.9a2.651,2.651,0,0,1-.134,1.285,1.722,1.722,0,0,1,.5-.005c2.18.353,3.465,1.228,3.43,2.338-.038,1.17-1.494,1.98-4,2.225-43.258,4.259-71.172-4.873-87.85-10.329l-1.462-.477a81.195,81.195,0,0,0-12.367-3.373c-.53-.076-1.035-.124-1.528-.165-8.539-.558-14.1-2.413-16.6-5.527l.086,5.2a44.877,44.877,0,0,0,7.837,7.469c7.566,5.412,12.6,3.289,16.28,1.738a11.906,11.906,0,0,1,3.557-1.118C89.61,498.836,89.775,498.831,89.962,498.831Z" transform="translate(-60.38 -480.233)" fill="#009150"/>
    </g>
    <g id="Group_957" data-name="Group 957" transform="translate(98.362 525.474)">
      <path id="Path_70365" data-name="Path 70365" d="M120.522,503.392a13.88,13.88,0,0,1-.986,1.492c-1.491,1.971-4.1,4.085-5.953,6.861-2.516,3.774-4.721,5.966-6.147,10.7a32.363,32.363,0,0,0-.986,4.578c-.895,6.031-2.905,8.145-4.384,8.858a2.986,2.986,0,0,1-1.738.35c-4.345-.155-6.926-1.8-8.469-3.852a9.352,9.352,0,0,1,.96-11.971l18.611-19.545a.511.511,0,0,1,.376-.168,23.13,23.13,0,0,0,2.529-.35A23.946,23.946,0,0,1,120.522,503.392Z" transform="translate(-89.494 -499.679)" fill="#fff"/>
      <path id="Path_70366" data-name="Path 70366" d="M100.749,537.05a2.292,2.292,0,0,1-.4-.03c-3.9-.134-6.919-1.516-8.865-4.1A10.05,10.05,0,0,1,92.5,520.114l18.611-19.546a1.057,1.057,0,0,1,.875-.37,15.136,15.136,0,0,0,1.643-.221l.922-.147.158.057a23.965,23.965,0,0,1,6.364,3.149l.433.341-.27.482a14.5,14.5,0,0,1-1.031,1.563,30.815,30.815,0,0,1-2.34,2.615,31.6,31.6,0,0,0-3.594,4.219c-.61.914-1.2,1.738-1.769,2.525a24.883,24.883,0,0,0-4.3,8,31.731,31.731,0,0,0-.964,4.484c-.933,6.286-3.094,8.553-4.744,9.348A3.941,3.941,0,0,1,100.749,537.05Zm11.182-35.555-18.5,19.512a8.741,8.741,0,0,0-.909,11.134c1.7,2.255,4.38,3.465,7.972,3.594a2.417,2.417,0,0,0,1.428-.284c1.124-.542,3.136-2.349,4.028-8.372a33.14,33.14,0,0,1,1.005-4.668,25.933,25.933,0,0,1,4.487-8.387c.559-.776,1.143-1.586,1.743-2.488a32.487,32.487,0,0,1,3.738-4.4,30.271,30.271,0,0,0,2.237-2.494c.246-.332.46-.639.643-.927a25.947,25.947,0,0,0-5.391-2.554l-.582.095A13.836,13.836,0,0,1,111.931,501.495Z" transform="translate(-89.638 -499.831)" fill="#009150"/>
    </g>
    <g id="Group_958" data-name="Group 958" transform="translate(108.937 546.522)">
      <path id="Path_70367" data-name="Path 70367" d="M105.87,522.455c0,4.669-2.594,8.443-5.8,8.443a3.6,3.6,0,0,1-.739-.078c1.479-.713,3.489-2.827,4.384-8.858a32.366,32.366,0,0,1,.986-4.578A11.037,11.037,0,0,1,105.87,522.455Z" transform="translate(-97.336 -515.667)" fill="#fff"/>
      <path id="Path_70368" data-name="Path 70368" d="M100.529,531.941a4.263,4.263,0,0,1-.873-.093l-1.864-.39,1.715-.828c1.121-.539,3.132-2.346,4.024-8.369a33.127,33.127,0,0,1,1.005-4.668l.455-1.533.742,1.417a11.621,11.621,0,0,1,1.241,5.371C106.975,527.862,104.083,531.941,100.529,531.941Zm4.757-12.071c-.183.819-.339,1.673-.471,2.578-.616,4.153-1.769,6.552-2.956,7.931,2.2-.89,3.818-3.93,3.818-7.531A11.174,11.174,0,0,0,105.287,519.87Z" transform="translate(-97.793 -516.06)" fill="#009150"/>
    </g>
    <g id="Group_959" data-name="Group 959" transform="translate(135.693 532.615)">
      <path id="Path_70369" data-name="Path 70369" d="M133.993,507.094a7.551,7.551,0,0,1-15.07-.1,5.935,5.935,0,0,1,.091-1.076A112.311,112.311,0,0,0,133.993,507.094Z" transform="translate(-118.275 -505.166)" fill="#fff"/>
      <path id="Path_70370" data-name="Path 70370" d="M126.607,514.931a7.994,7.994,0,0,1-8.184-7.769,6.5,6.5,0,0,1,.1-1.195l.117-.63.633.11a110.26,110.26,0,0,0,14.885,1.17l.642.018-.01.642A8.032,8.032,0,0,1,126.607,514.931Zm-6.879-8.094c-.005.1-.008.214-.008.325a6.7,6.7,0,0,0,6.887,6.472,6.786,6.786,0,0,0,6.843-5.739A114.065,114.065,0,0,1,119.728,506.836Z" transform="translate(-118.423 -505.337)" fill="#009150"/>
    </g>
    <g id="Group_960" data-name="Group 960" transform="translate(161.502 531.764)">
      <path id="Path_70371" data-name="Path 70371" d="M173.581,521v.1a16.175,16.175,0,0,1-13.773,15.861,17.045,17.045,0,0,1-2.451.169c-10.233,0-18.533-8.858-18.533-19.778v-.117a16.1,16.1,0,0,1,3.45-9.857c7.341-.078,14.123-.311,18.326-.48a12.558,12.558,0,0,0,5.706-1.621A20.245,20.245,0,0,1,173.581,521Z" transform="translate(-138.175 -504.502)" fill="#fff"/>
      <path id="Path_70372" data-name="Path 70372" d="M157.5,537.965c-10.576,0-19.182-9.164-19.182-20.427a16.9,16.9,0,0,1,3.589-10.374l.192-.245.311,0c5.627-.06,11.958-.226,18.306-.48a11.96,11.96,0,0,0,5.412-1.535l.387-.219.344.28a20.8,20.8,0,0,1,7.514,16.221v.1a16.8,16.8,0,0,1-14.331,16.5A17.433,17.433,0,0,1,157.5,537.965Zm-14.76-29.757a15.513,15.513,0,0,0-3.124,9.215c0,10.662,8.023,19.245,17.885,19.245a16.042,16.042,0,0,0,2.358-.163,15.5,15.5,0,0,0,13.218-15.223l.648-.1h-.648a19.538,19.538,0,0,0-6.705-14.938,13.271,13.271,0,0,1-5.6,1.489C154.531,507.982,148.3,508.146,142.744,508.209Z" transform="translate(-138.323 -504.681)" fill="#009150"/>
    </g>
    <g id="Group_961" data-name="Group 961" transform="translate(161.502 531.764)">
      <path id="Path_70373" data-name="Path 70373" d="M173.581,521v.1a16.175,16.175,0,0,1-13.773,15.861,17.045,17.045,0,0,1-2.451.169c-10.233,0-18.533-8.858-18.533-19.778v-.117a16.1,16.1,0,0,1,3.45-9.857c7.341-.078,14.123-.311,18.326-.48a12.558,12.558,0,0,0,5.706-1.621A20.245,20.245,0,0,1,173.581,521Z" transform="translate(-138.175 -504.502)" fill="#fff"/>
      <path id="Path_70374" data-name="Path 70374" d="M157.5,537.965c-10.576,0-19.182-9.164-19.182-20.427a16.9,16.9,0,0,1,3.589-10.374l.192-.245.311,0c5.627-.06,11.958-.226,18.306-.48a11.96,11.96,0,0,0,5.412-1.535l.387-.219.344.28a20.8,20.8,0,0,1,7.514,16.221v.1a16.8,16.8,0,0,1-14.331,16.5A17.433,17.433,0,0,1,157.5,537.965Zm-14.76-29.757a15.513,15.513,0,0,0-3.124,9.215c0,10.662,8.023,19.245,17.885,19.245a16.042,16.042,0,0,0,2.358-.163,15.5,15.5,0,0,0,13.218-15.223l.648-.1h-.648a19.538,19.538,0,0,0-6.705-14.938,13.271,13.271,0,0,1-5.6,1.489C154.531,507.982,148.3,508.146,142.744,508.209Z" transform="translate(-138.323 -504.681)" fill="#009150"/>
    </g>
    <g id="Group_962" data-name="Group 962" transform="translate(60.261 497.528)">
      <path id="Path_70375" data-name="Path 70375" d="M181.339,505.215c-44.368,4.371-71.993-5.214-89.047-10.778a81.809,81.809,0,0,0-12.476-3.4c-.545-.078-1.063-.13-1.569-.168-12.489-.817-16.354-4.319-17.262-7.405v-.013a6.642,6.642,0,0,1,.389-4.435.408.408,0,0,1,.7-.065,13.537,13.537,0,0,0,3.865,3.216c17.262,10.44,75.468,17.859,96.958,20.349.389.039.765.091,1.128.142.973.1,1.868.208,2.659.3.311.039.61.078.895.1.571.065,1.064.117,1.491.169a1.714,1.714,0,0,0,1.894-1.8l-.1-1.932.285.052.22,3.579a.58.58,0,0,0,.687.545s.207-.039.571-.117l.195-.039c2.231-.441,8.521-1.673,9.04-1.582C185.762,502.57,185.84,504.774,181.339,505.215Z" transform="translate(-60.112 -478.134)" fill="#fff"/>
      <path id="Path_70376" data-name="Path 70376" d="M159.7,507.108c-31.074,0-52.317-6.951-66-11.427l-1.462-.477a81.175,81.175,0,0,0-12.368-3.373c-.53-.077-1.035-.125-1.528-.165-10.5-.686-16.5-3.333-17.834-7.867l-.026-.108a7.326,7.326,0,0,1,.445-4.787,1.036,1.036,0,0,1,.822-.611,1.061,1.061,0,0,1,.979.4,12.926,12.926,0,0,0,3.691,3.065c16.716,10.111,73.192,17.536,96.7,20.259.388.039.773.092,1.145.145.768.083,1.506.166,2.18.244l.459.052c.384.049.637.08.879.1l1.512.173a1.054,1.054,0,0,0,.829-.28,1.086,1.086,0,0,0,.34-.849l-.148-2.749,1.593.29.252,4.087.664-.2c8.634-1.705,9.081-1.624,9.292-1.586,2.18.353,3.465,1.228,3.43,2.338-.036,1.17-1.494,1.98-4,2.226h0C173.781,506.775,166.5,507.108,159.7,507.108Zm-97.92-23.59c.851,2.707,4.45,6.057,16.656,6.854.527.041,1.06.095,1.619.174a82,82,0,0,1,12.585,3.424l1.463.479c17.654,5.775,44.333,14.5,87.32,10.269h0c2.288-.223,2.825-.866,2.827-.975.005-.139-.546-.726-2.349-1.019-.154-.047-1.294.092-8.81,1.578l-.184.036c-.374.079-.586.121-.586.121a1.245,1.245,0,0,1-1-.25,1.225,1.225,0,0,1-.432-.7,2.385,2.385,0,0,1-1.744.516l-1.494-.17c-.241-.022-.511-.056-.79-.091l-.564-.066c-.67-.077-1.407-.161-2.194-.245-.377-.053-.744-.1-1.124-.143-29.312-3.4-80.906-10.566-97.23-20.439a14.927,14.927,0,0,1-3.791-3.059,5.85,5.85,0,0,0-.2,3.611Z" transform="translate(-60.261 -478.283)" fill="#009150"/>
    </g>
    <g id="Group_963" data-name="Group 963" transform="translate(67.19 517.611)">
      <path id="Path_70377" data-name="Path 70377" d="M95.154,505.369a14.87,14.87,0,0,1-28.377-8.9,12.825,12.825,0,0,1,.778-1.958c10.518,7.522,16.406,1,20.258.739a44.369,44.369,0,0,1,7.107.674A14.5,14.5,0,0,1,95.154,505.369Z" transform="translate(-65.456 -493.547)" fill="#fff"/>
      <path id="Path_70378" data-name="Path 70378" d="M81.178,516.591A15.546,15.546,0,0,1,66.307,496.5a13.382,13.382,0,0,1,.817-2.055l.339-.678.619.441c7.565,5.409,12.6,3.288,16.279,1.737a11.912,11.912,0,0,1,3.557-1.118,43.909,43.909,0,0,1,7.246.681l.38.056.134.361a15.054,15.054,0,0,1,.244,9.862,15.277,15.277,0,0,1-7.6,9.054A15.481,15.481,0,0,1,81.178,516.591ZM67.97,495.711a12.308,12.308,0,0,0-.424,1.175,14.239,14.239,0,0,0,20.176,16.8,13.984,13.984,0,0,0,6.962-8.291h0a13.764,13.764,0,0,0-.095-8.661,41.916,41.916,0,0,0-6.581-.613,11.123,11.123,0,0,0-3.145,1.018C81.227,498.674,75.782,500.972,67.97,495.711Z" transform="translate(-65.604 -493.768)" fill="#009150"/>
    </g>
    <g id="Group_964" data-name="Group 964" transform="translate(172.845 479.146)">
      <path id="Path_70379" data-name="Path 70379" d="M168.369,479.44l-16.411,8.848a2.32,2.32,0,0,1-3.391-1.694c-.327-2.079-.7-5.51-.993-11.138a1.96,1.96,0,0,1,1.122-1.873l18.515-8.713Z" transform="translate(-146.921 -463.884)" fill="#fff"/>
      <path id="Path_70380" data-name="Path 70380" d="M151.009,489.443a2.986,2.986,0,0,1-2.936-2.524c-.412-2.628-.748-6.4-1-11.2a2.6,2.6,0,0,1,1.494-2.494l19.363-9.112,1.267,15.925-16.784,9.049A2.95,2.95,0,0,1,151.009,489.443Zm15.777-23.362-17.667,8.313a1.307,1.307,0,0,0-.751,1.253c.248,4.762.58,8.487.987,11.072a1.663,1.663,0,0,0,.913,1.249,1.643,1.643,0,0,0,1.53-.027l16.038-8.647Z" transform="translate(-147.069 -464.11)" fill="#009150"/>
    </g>
    <g id="Group_969" data-name="Group 969" transform="translate(71.447 511.537)">
      <g id="Group_965" data-name="Group 965">
        <ellipse id="Ellipse_713" data-name="Ellipse 713" cx="3.099" cy="2.677" rx="3.099" ry="2.677" transform="translate(0.162 0.162)" fill="#fff"/>
        <path id="Path_70381" data-name="Path 70381" d="M72.148,494.763a2.866,2.866,0,1,1,3.26-2.839A3.076,3.076,0,0,1,72.148,494.763Zm0-5.354a2.545,2.545,0,1,0,2.936,2.515A2.754,2.754,0,0,0,72.148,489.409Z" transform="translate(-68.886 -489.085)" fill="#009150"/>
      </g>
      <g id="Group_966" data-name="Group 966" transform="translate(96.856 18.267)">
        <ellipse id="Ellipse_714" data-name="Ellipse 714" cx="1.987" cy="1.738" rx="1.987" ry="1.738" transform="translate(0.162 0.162)" fill="#fff"/>
        <path id="Path_70382" data-name="Path 70382" d="M145.715,506.971a1.915,1.915,0,1,1,2.15-1.9A2.038,2.038,0,0,1,145.715,506.971Zm0-3.477a1.593,1.593,0,1,0,1.826,1.577A1.716,1.716,0,0,0,145.715,503.494Z" transform="translate(-143.567 -503.17)" fill="#009150"/>
      </g>
      <g id="Group_967" data-name="Group 967" transform="translate(104.504 13.82)">
        <circle id="Ellipse_715" data-name="Ellipse 715" cx="3.036" cy="3.036" r="3.036" transform="translate(0.162 0.16)" fill="#fff"/>
        <path id="Path_70383" data-name="Path 70383" d="M152.662,506.135a3.2,3.2,0,1,1,2.262-5.459h0a3.2,3.2,0,0,1-2.262,5.459Zm0-6.07a2.874,2.874,0,1,0,2.032.842h0A2.862,2.862,0,0,0,152.662,500.065Z" transform="translate(-149.464 -499.741)" fill="#009150"/>
      </g>
      <g id="Group_968" data-name="Group 968" transform="translate(119.538 13.301)">
        <ellipse id="Ellipse_716" data-name="Ellipse 716" cx="1.076" cy="2.07" rx="1.076" ry="2.07" transform="translate(0.162 0.161)" fill="#fff"/>
        <path id="Path_70384" data-name="Path 70384" d="M162.295,503.8c-.7,0-1.238-.98-1.238-2.232s.543-2.231,1.238-2.231,1.239.981,1.239,2.231S162.988,503.8,162.295,503.8Zm0-4.139c-.5,0-.914.874-.914,1.906s.419,1.908.914,1.908.914-.874.914-1.908C163.209,500.432,162.736,499.665,162.295,499.665Z" transform="translate(-161.056 -499.341)" fill="#009150"/>
      </g>
    </g>
    <g id="Group_970" data-name="Group 970" transform="translate(170.445 534.323)">
      <path id="Path_70385" data-name="Path 70385" d="M151.673,517.7c-.791,2.853-1.3,5.641-.895,7.315,0,0-3.528.882-3.528-1.764a44.492,44.492,0,0,0-.441-4.552c-.48-3.489-1.18-7.535-1.323-8.261-.22-1.1,1.543-3.528,1.543-3.528l8.391.441A88.091,88.091,0,0,0,151.673,517.7Z" transform="translate(-145.145 -506.578)" fill="#fff"/>
      <path id="Path_70386" data-name="Path 70386" d="M149.616,525.557a3.054,3.054,0,0,1-1.872-.524,2.037,2.037,0,0,1-.744-1.7c0-1.025-.25-3.066-.438-4.511-.48-3.494-1.175-7.5-1.319-8.241-.241-1.206,1.41-3.521,1.6-3.782l.1-.143,9.036.476-.191.431a88.362,88.362,0,0,0-3.731,10.3c-.927,3.346-1.228,5.752-.892,7.151l.075.314-.311.076A5.9,5.9,0,0,1,149.616,525.557Zm-2.351-18.236c-.645.919-1.519,2.465-1.386,3.132.147.742.844,4.771,1.327,8.281a42.1,42.1,0,0,1,.443,4.6,1.413,1.413,0,0,0,.493,1.192,3.3,3.3,0,0,0,2.329.315c-.25-1.533.073-3.934.964-7.145h0a87.757,87.757,0,0,1,3.578-9.964Z" transform="translate(-145.218 -506.654)" fill="#009150"/>
    </g>
    <g id="Group_971" data-name="Group 971" transform="translate(169.581 545.051)">
      <path id="Path_70387" data-name="Path 70387" d="M156.059,520.782a5.629,5.629,0,1,1-9.053-4.552,44.484,44.484,0,0,1,.441,4.552c0,2.646,3.528,1.764,3.528,1.764-.4-1.673.1-4.461.895-7.315A5.715,5.715,0,0,1,156.059,520.782Z" transform="translate(-144.478 -514.835)" fill="#fff"/>
      <path id="Path_70388" data-name="Path 70388" d="M150.5,526.93a6.08,6.08,0,0,1-3.622-10.864l.447-.348.073.561a42.03,42.03,0,0,1,.444,4.594,1.412,1.412,0,0,0,.493,1.192,3.3,3.3,0,0,0,2.329.315c-.25-1.533.073-3.934.964-7.145l.086-.31.311.083A6.075,6.075,0,0,1,150.5,526.93Zm-3.668-9.968a5.287,5.287,0,1,0,5.333-1.234c-.86,3.18-1.131,5.477-.805,6.831l.075.314-.311.076c-.084.021-2.063.5-3.187-.374a2.036,2.036,0,0,1-.744-1.7C147.2,519.984,147.01,518.329,146.837,516.962Z" transform="translate(-144.552 -514.926)" fill="#009150"/>
    </g>
    <g id="Group_972" data-name="Group 972" transform="translate(74.385 520.942)">
      <path id="Path_70389" data-name="Path 70389" d="M76.921,497.816l-.828,7.671-3.311-.883-1.325-7.947Z" transform="translate(-71.06 -496.242)" fill="#fff"/>
      <path id="Path_70390" data-name="Path 70390" d="M76.466,505.993l-3.878-1.034-1.437-8.622,6.215,1.318Zm-3.307-1.552,2.744.731.755-7-4.712-1Z" transform="translate(-71.151 -496.337)" fill="#009150"/>
    </g>
  </g>
</svg>
