<svg xmlns="http://www.w3.org/2000/svg" width="40" height="40" viewBox="0 0 178.317 254.143">
  <path id="Subtraction_5" data-name="Subtraction 5" d="M-3040.492-1362.262h-101.9a161.147,161.147,0,0,0-17.082-72.2l-18.3-36.505a26.732,26.732,0,0,1-2.834-11.979v-69.918h12.737v-38.12a25.043,25.043,0,0,1,2.01-9.868,25.693,25.693,0,0,1,13.575-13.541,25.211,25.211,0,0,1,9.889-2.005h101.9a25.208,25.208,0,0,1,9.891,2.005,25.7,25.7,0,0,1,13.572,13.541,25.052,25.052,0,0,1,2.01,9.868v38.12h12.737v69.919a26.731,26.731,0,0,1-2.834,11.979l-18.3,36.506a161.145,161.145,0,0,0-17.08,72.2h0Zm-50.95-163.415a55.043,55.043,0,0,0-30.874,9.412,55.262,55.262,0,0,0-20.007,24.238,54.923,54.923,0,0,0,5.091,52.246,55.283,55.283,0,0,0,76.766,14.815,55.281,55.281,0,0,0,19.909-24.18,54.923,54.923,0,0,0-5.091-52.246,55.172,55.172,0,0,0-45.79-24.289Zm25.476-52.606v25.414h25.474v-38.12h-101.9v38.12h25.473v-25.414h12.737v25.414h25.474v-25.414Zm-25.2,143.867a35.892,35.892,0,0,1-35.808-35.977A35.892,35.892,0,0,1-3091-1506.2a35.893,35.893,0,0,1,35.808,35.892A35.975,35.975,0,0,1-3091.166-1434.416Z" transform="translate(3180.599 1616.404)" fill="#24803e"/>
</svg>
