<svg xmlns="http://www.w3.org/2000/svg" width="40" height="40" viewBox="0 0 135 135">
  <path id="Subtraction_6" data-name="Subtraction 6" d="M67.5,135A67.518,67.518,0,0,1,41.226,5.3,67.517,67.517,0,0,1,93.774,129.7,67.076,67.076,0,0,1,67.5,135ZM66.458,76.639h0l23.858,28.6,4.89-5.862-23.859-28.6,5.1-6.111a10.574,10.574,0,0,0,5.2,1.312c4.57,0,9.334-2.569,13.072-7.049a25.631,25.631,0,0,0,5.8-13.407c.534-4.809-.528-9.083-2.991-12.035a10.166,10.166,0,0,0-8.049-3.728c-4.591,0-9.393,2.586-13.174,7.1-5.335,6.4-7.3,15.4-4.785,21.908L37.675,99.337l4.89,5.862L66.457,76.64ZM38.4,31.284c-5.394,6.466-5.394,17.022,0,23.53l14.53,17.377,9.814-11.765Z" fill="#009150"/>
</svg>
